<svg xmlns="http://www.w3.org/2000/svg" width="450" height="450" viewBox="0 0 450 450" fill="none">
	<path d="M53.1841 166.957L22.0562 161.342C25.5555 148.809 31.5777 139.532 40.1226 133.51C48.6675 127.488 61.3628 124.477 78.2085 124.477C93.508 124.477 104.901 126.308 112.388 129.97C119.875 133.551 125.124 138.149 128.135 143.764C131.228 149.298 132.774 159.511 132.774 174.403L132.408 214.442C132.408 225.836 132.937 234.259 133.995 239.711C135.134 245.082 137.209 250.86 140.22 257.045H106.285C105.39 254.766 104.291 251.389 102.989 246.913C102.419 244.879 102.012 243.536 101.768 242.885C95.9087 248.581 89.6424 252.854 82.9693 255.702C76.2961 258.551 69.1753 259.975 61.607 259.975C48.2606 259.975 37.7219 256.353 29.9908 249.11C22.341 241.868 18.5161 232.712 18.5161 221.645C18.5161 214.32 20.2658 207.81 23.7652 202.113C27.2645 196.335 32.1473 191.941 38.4136 188.93C44.7613 185.837 53.8758 183.152 65.7574 180.873C81.7893 177.862 92.8977 175.054 99.0826 172.45V169.032C99.0826 162.441 97.4549 157.761 94.1997 154.994C90.9445 152.146 84.8003 150.722 75.7671 150.722C69.6636 150.722 64.9029 151.942 61.4849 154.384C58.0669 156.744 55.3 160.935 53.1841 166.957ZM99.0826 194.789C94.688 196.254 87.73 198.004 78.2085 200.038C68.687 202.073 62.4615 204.066 59.5318 206.02C55.0559 209.193 52.8179 213.222 52.8179 218.105C52.8179 222.906 54.6083 227.056 58.189 230.556C61.7697 234.055 66.327 235.805 71.8609 235.805C78.0458 235.805 83.9458 233.77 89.5611 229.701C93.7115 226.609 96.4377 222.825 97.7398 218.349C98.635 215.419 99.0826 209.844 99.0826 201.625V194.789ZM165.245 257.045V78.0899H199.546V142.543C210.126 130.499 222.658 124.477 237.144 124.477C252.932 124.477 265.993 130.214 276.329 141.689C286.664 153.082 291.832 169.48 291.832 190.883C291.832 213.018 286.542 230.067 275.962 242.03C265.464 253.993 252.688 259.975 237.632 259.975C230.227 259.975 222.903 258.144 215.66 254.482C208.498 250.738 202.313 245.245 197.105 238.002V257.045H165.245ZM199.302 189.418C199.302 202.846 201.418 212.774 205.65 219.203C211.591 228.318 219.485 232.875 229.332 232.875C236.9 232.875 243.329 229.661 248.619 223.232C253.99 216.721 256.675 206.508 256.675 192.592C256.675 177.781 253.99 167.12 248.619 160.609C243.248 154.018 236.371 150.722 227.989 150.722C219.769 150.722 212.933 153.936 207.481 160.365C202.029 166.713 199.302 176.397 199.302 189.418ZM432.579 165.736L398.765 171.84C397.626 165.085 395.022 159.999 390.953 156.581C386.965 153.163 381.757 151.454 375.328 151.454C366.783 151.454 359.947 154.425 354.82 160.365C349.774 166.225 347.251 176.072 347.251 189.906C347.251 205.287 349.815 216.151 354.942 222.499C360.15 228.847 367.108 232.021 375.816 232.021C382.326 232.021 387.657 230.19 391.807 226.527C395.958 222.784 398.887 216.396 400.596 207.362L434.288 213.1C430.788 228.562 424.074 240.24 414.146 248.134C404.218 256.028 390.912 259.975 374.229 259.975C355.267 259.975 340.131 253.993 328.819 242.03C317.588 230.067 311.973 213.507 311.973 192.348C311.973 170.945 317.629 154.303 328.941 142.421C340.253 130.458 355.552 124.477 374.839 124.477C390.627 124.477 403.16 127.895 412.437 134.731C421.796 141.485 428.51 151.82 432.579 165.736Z" fill="#445AEC"/>
	<path d="M376.366 360.017C361.288 359.87 353.608 349.583 346.834 340.506C340.714 332.31 335.884 325.835 325.553 325.734C315.227 325.633 310.393 332.013 304.272 340.089C297.496 349.034 289.814 359.17 274.735 359.023C259.654 358.875 251.978 348.589 245.204 339.511C239.087 331.316 234.251 324.841 223.925 324.74C213.597 324.639 208.764 331.019 202.646 339.095C195.868 348.04 188.188 358.176 173.107 358.029C158.03 357.881 150.355 347.594 143.582 338.517C137.465 330.321 132.632 323.847 122.305 323.746C111.979 323.645 107.146 330.025 101.023 338.1C94.2489 347.045 86.5694 357.182 71.4891 357.034C56.4119 356.887 48.7321 346.6 41.9546 337.522C35.8385 329.327 31.0056 322.853 20.6781 322.752C17.3043 322.719 14.5663 318.714 14.5683 313.811C14.5703 308.904 17.307 304.957 20.6839 304.99C35.7601 305.137 43.4389 315.424 50.2144 324.5C56.3325 332.697 61.1654 339.171 71.4899 339.272C81.8174 339.374 86.652 332.994 92.7694 324.916C99.5482 315.973 107.232 305.837 122.308 305.984C137.385 306.132 145.062 316.418 151.838 325.495C157.955 333.691 162.784 340.166 173.108 340.267C183.441 340.368 188.272 333.988 194.392 325.91C201.166 316.967 208.85 306.831 223.927 306.978C239.008 307.126 246.686 317.412 253.463 326.488C259.579 334.685 264.409 341.16 274.736 341.261C285.066 341.362 289.9 334.982 296.017 326.904C302.796 317.961 310.477 307.825 325.557 307.973C340.636 308.12 348.316 318.407 355.09 327.482C361.21 335.68 366.039 342.154 376.369 342.255C386.698 342.356 391.532 335.976 397.653 327.899C404.432 318.956 412.114 308.819 427.193 308.967C430.569 309 433.309 313.001 433.308 317.908C433.308 322.81 430.566 326.762 427.195 326.729C416.864 326.628 412.03 333.008 405.905 341.084C399.129 350.028 391.449 360.165 376.366 360.017Z" fill="#C71514"/>
</svg>