<svg width="48" height="48" viewBox="0 0 48 48" fill="none" xmlns="http://www.w3.org/2000/svg">
    <path fill-rule="evenodd" clip-rule="evenodd" d="M35.3137 12.6865C29.0653 6.43811 18.9347 6.43811 12.6863 12.6865C9.52081 15.852 7.95951 20.0059 8.0008 24.1605C8.02275 26.3695 6.24978 28.1781 4.04075 28.2C1.83172 28.222 0.0231472 26.449 0.00119037 24.24C-0.0605814 18.0247 2.2827 11.7764 7.02944 7.02964C16.402 -2.34294 31.598 -2.34294 40.9706 7.02964C50.3431 16.4022 50.3431 31.5982 40.9706 40.9708C36.2238 45.7175 29.9755 48.0608 23.7602 47.999C21.5512 47.9771 19.7782 46.1685 19.8002 43.9595C19.8221 41.7504 21.6307 39.9775 23.8397 39.9994C27.9943 40.0407 32.1482 38.4794 35.3137 35.3139C41.5621 29.0655 41.5621 18.9349 35.3137 12.6865Z" fill="#090909"/>
</svg>
